<?xml version="1.0" standalone="no"?>
<!DOCTYPE svg PUBLIC "-//W3C//DTD SVG 20010904//EN"
 "http://www.w3.org/TR/2001/REC-SVG-20010904/DTD/svg10.dtd">
<svg version="1.0" xmlns="http://www.w3.org/2000/svg"
 width="350.000000pt" height="350.000000pt" viewBox="0 0 350.000000 350.000000"
 preserveAspectRatio="xMidYMid meet">
<metadata>
Created by potrace 1.11, written by Peter Selinger 2001-2013
</metadata>
<g transform="translate(0.000000,350.000000) scale(0.100000,-0.100000)"
fill="#000000" stroke="none">
<path d="M1455 2952 c-17 -8 -228 -146 -471 -307 -295 -195 -448 -303 -465
-326 l-24 -34 -1 -655 c0 -496 3 -661 12 -680 25 -52 17 -48 554 -257 379
-147 345 -137 460 -137 77 0 125 6 180 21 80 23 344 93 371 98 9 2 92 24 185
49 178 47 388 102 541 141 122 31 156 49 190 97 35 51 40 129 13 203 -28 80
-148 319 -171 344 -31 33 -80 51 -147 52 l-58 2 -43 166 c-24 91 -44 174 -45
185 -1 14 26 32 111 75 173 87 184 102 188 260 14 428 22 414 -286 487 -107
25 -201 47 -209 49 -8 2 -181 43 -385 91 -203 49 -393 89 -420 90 -30 1 -63
-4 -80 -14z"/>
</g>
</svg>
